{
    "asset" : {
        "generator" : "Khronos glTF Blender I/O v0.9.36",
        "version" : "2.0"
    },
    "scene" : 0,
    "scenes" : [
        {
            "name" : "Scene",
            "nodes" : [
                1
            ]
        }
    ],
    "nodes" : [
        {
            "mesh" : 0,
            "name" : "Barrels",
            "translation" : [
                0,
                0.1853947937488556,
                0
            ]
        },
        {
            "children" : [
                0
            ],
            "mesh" : 1,
            "name" : "Base"
        }
    ],
    "meshes" : [
        {
            "name" : "Cube.004",
            "primitives" : [
                {
                    "attributes" : {
                        "POSITION" : 0,
                        "NORMAL" : 1,
                        "TEXCOORD_0" : 2,
                        "COLOR_0" : 3
                    },
                    "indices" : 4
                }
            ]
        },
        {
            "name" : "Cube.005",
            "primitives" : [
                {
                    "attributes" : {
                        "POSITION" : 5,
                        "NORMAL" : 6,
                        "TEXCOORD_0" : 7,
                        "COLOR_0" : 8
                    },
                    "indices" : 9
                },
                {
                    "attributes" : {
                        "POSITION" : 10,
                        "NORMAL" : 11,
                        "TEXCOORD_0" : 12,
                        "COLOR_0" : 13
                    },
                    "indices" : 14
                },
                {
                    "attributes" : {
                        "POSITION" : 15,
                        "NORMAL" : 16,
                        "TEXCOORD_0" : 17,
                        "COLOR_0" : 18
                    },
                    "indices" : 19
                }
            ]
        }
    ],
    "accessors" : [
        {
            "bufferView" : 0,
            "componentType" : 5126,
            "count" : 1605,
            "max" : [
                0.5499914884567261,
                0.5363725423812866,
                8.20544719696045
            ],
            "min" : [
                -0.5499914884567261,
                -0.3607369065284729,
                1.0385260581970215
            ],
            "type" : "VEC3"
        },
        {
            "bufferView" : 1,
            "componentType" : 5126,
            "count" : 1605,
            "type" : "VEC3"
        },
        {
            "bufferView" : 2,
            "componentType" : 5126,
            "count" : 1605,
            "type" : "VEC2"
        },
        {
            "bufferView" : 3,
            "componentType" : 5126,
            "count" : 1605,
            "type" : "VEC4"
        },
        {
            "bufferView" : 4,
            "componentType" : 5123,
            "count" : 1605,
            "type" : "SCALAR"
        },
        {
            "bufferView" : 5,
            "componentType" : 5126,
            "count" : 90,
            "max" : [
                1.2342406511306763,
                1.3774969577789307,
                0.8776517510414124
            ],
            "min" : [
                -0.6261494755744934,
                -0.17267051339149475,
                -0.9820759296417236
            ],
            "type" : "VEC3"
        },
        {
            "bufferView" : 6,
            "componentType" : 5126,
            "count" : 90,
            "type" : "VEC3"
        },
        {
            "bufferView" : 7,
            "componentType" : 5126,
            "count" : 90,
            "type" : "VEC2"
        },
        {
            "bufferView" : 8,
            "componentType" : 5126,
            "count" : 90,
            "type" : "VEC4"
        },
        {
            "bufferView" : 9,
            "componentType" : 5123,
            "count" : 90,
            "type" : "SCALAR"
        },
        {
            "bufferView" : 10,
            "componentType" : 5126,
            "count" : 462,
            "max" : [
                1.2847521305084229,
                1.462517499923706,
                1.0229417085647583
            ],
            "min" : [
                -0.7685074806213379,
                -0.4010639190673828,
                -1.0312479734420776
            ],
            "type" : "VEC3"
        },
        {
            "bufferView" : 11,
            "componentType" : 5126,
            "count" : 462,
            "type" : "VEC3"
        },
        {
            "bufferView" : 12,
            "componentType" : 5126,
            "count" : 462,
            "type" : "VEC2"
        },
        {
            "bufferView" : 13,
            "componentType" : 5126,
            "count" : 462,
            "type" : "VEC4"
        },
        {
            "bufferView" : 14,
            "componentType" : 5123,
            "count" : 462,
            "type" : "SCALAR"
        },
        {
            "bufferView" : 15,
            "componentType" : 5126,
            "count" : 18,
            "max" : [
                0.4785600006580353,
                0.5659291744232178,
                0.9236558675765991
            ],
            "min" : [
                -0.4785599112510681,
                -0.21359658241271973,
                -0.5277612805366516
            ],
            "type" : "VEC3"
        },
        {
            "bufferView" : 16,
            "componentType" : 5126,
            "count" : 18,
            "type" : "VEC3"
        },
        {
            "bufferView" : 17,
            "componentType" : 5126,
            "count" : 18,
            "type" : "VEC2"
        },
        {
            "bufferView" : 18,
            "componentType" : 5126,
            "count" : 18,
            "type" : "VEC4"
        },
        {
            "bufferView" : 19,
            "componentType" : 5123,
            "count" : 18,
            "type" : "SCALAR"
        }
    ],
    "bufferViews" : [
        {
            "buffer" : 0,
            "byteLength" : 19260,
            "byteOffset" : 0
        },
        {
            "buffer" : 0,
            "byteLength" : 19260,
            "byteOffset" : 19260
        },
        {
            "buffer" : 0,
            "byteLength" : 12840,
            "byteOffset" : 38520
        },
        {
            "buffer" : 0,
            "byteLength" : 25680,
            "byteOffset" : 51360
        },
        {
            "buffer" : 0,
            "byteLength" : 3210,
            "byteOffset" : 77040
        },
        {
            "buffer" : 0,
            "byteLength" : 1080,
            "byteOffset" : 80252
        },
        {
            "buffer" : 0,
            "byteLength" : 1080,
            "byteOffset" : 81332
        },
        {
            "buffer" : 0,
            "byteLength" : 720,
            "byteOffset" : 82412
        },
        {
            "buffer" : 0,
            "byteLength" : 1440,
            "byteOffset" : 83132
        },
        {
            "buffer" : 0,
            "byteLength" : 180,
            "byteOffset" : 84572
        },
        {
            "buffer" : 0,
            "byteLength" : 5544,
            "byteOffset" : 84752
        },
        {
            "buffer" : 0,
            "byteLength" : 5544,
            "byteOffset" : 90296
        },
        {
            "buffer" : 0,
            "byteLength" : 3696,
            "byteOffset" : 95840
        },
        {
            "buffer" : 0,
            "byteLength" : 7392,
            "byteOffset" : 99536
        },
        {
            "buffer" : 0,
            "byteLength" : 924,
            "byteOffset" : 106928
        },
        {
            "buffer" : 0,
            "byteLength" : 216,
            "byteOffset" : 107852
        },
        {
            "buffer" : 0,
            "byteLength" : 216,
            "byteOffset" : 108068
        },
        {
            "buffer" : 0,
            "byteLength" : 144,
            "byteOffset" : 108284
        },
        {
            "buffer" : 0,
            "byteLength" : 288,
            "byteOffset" : 108428
        },
        {
            "buffer" : 0,
            "byteLength" : 36,
            "byteOffset" : 108716
        }
    ],
    "buffers" : [
        {
            "byteLength" : 108752,
            "uri" : "gun.bin"
        }
    ]
}
